<svg width="93" height="68" viewBox="0 0 93 68" fill="none" xmlns="http://www.w3.org/2000/svg">
<g clip-path="url(#clip0_128_369)">
<path d="M91 2.00073H83.619C81.8901 1.97789 80.1965 2.49165 78.7717 3.47128C77.3468 4.45091 76.2608 5.84821 75.663 7.47073L62.712 44.5307C62.1139 46.1532 61.0276 47.5503 59.6026 48.5299C58.1776 49.5095 56.4841 50.0233 54.755 50.0007H20.321C18.6791 50.0192 17.0678 49.5559 15.6863 48.6684C14.3048 47.7808 13.2137 46.5078 12.548 45.0067L3.62304 24.0067C1.38704 18.7467 5.44504 13.0007 11.4 13.0007H56" stroke="black" stroke-width="4" stroke-linecap="round" stroke-linejoin="round"/>
<path d="M23.5 66.0005C25.9853 66.0005 28 63.9858 28 61.5005C28 59.0153 25.9853 57.0005 23.5 57.0005C21.0148 57.0005 19 59.0153 19 61.5005C19 63.9858 21.0148 66.0005 23.5 66.0005Z" stroke="black" stroke-width="4" stroke-linecap="round" stroke-linejoin="round"/>
<path d="M52.5 66.0005C54.9853 66.0005 57 63.9858 57 61.5005C57 59.0153 54.9853 57.0005 52.5 57.0005C50.0148 57.0005 48 59.0153 48 61.5005C48 63.9858 50.0148 66.0005 52.5 66.0005Z" stroke="black" stroke-width="4" stroke-linecap="round" stroke-linejoin="round"/>
<path d="M40.4893 18.86V27.86H49.2493V32.42H40.4893V41.36H35.4493V32.42H26.7493V27.86H35.4493V18.86H40.4893Z" fill="black"/>
</g>
<defs>
<clipPath id="clip0_128_369">
<rect width="93" height="68" fill="white"/>
</clipPath>
</defs>
</svg>
