<svg width="93" height="68" viewBox="0 0 93 68" fill="none" xmlns="http://www.w3.org/2000/svg">
<path d="M91 2.00073H83.619C81.8901 1.97789 80.1965 2.49165 78.7717 3.47128C77.3468 4.45091 76.2608 5.84821 75.663 7.47073L62.712 44.5307C62.1139 46.1532 61.0276 47.5503 59.6026 48.5299C58.1776 49.5095 56.4841 50.0233 54.755 50.0007H20.321C18.6791 50.0192 17.0678 49.5559 15.6863 48.6684C14.3048 47.7808 13.2137 46.5078 12.548 45.0067L3.62304 24.0067C1.38704 18.7467 5.44504 13.0007 11.4 13.0007H56" stroke="black" stroke-width="4" stroke-linecap="round" stroke-linejoin="round"/>
<path d="M23.5 66.0007C25.9853 66.0007 28 63.986 28 61.5007C28 59.0155 25.9853 57.0007 23.5 57.0007C21.0148 57.0007 19 59.0155 19 61.5007C19 63.986 21.0148 66.0007 23.5 66.0007Z" stroke="black" stroke-width="4" stroke-linecap="round" stroke-linejoin="round"/>
<path d="M52.5 66.0007C54.9853 66.0007 57 63.986 57 61.5007C57 59.0155 54.9853 57.0007 52.5 57.0007C50.0148 57.0007 48 59.0155 48 61.5007C48 63.986 50.0148 66.0007 52.5 66.0007Z" stroke="black" stroke-width="4" stroke-linecap="round" stroke-linejoin="round"/>
</svg>
