<svg width="789" height="1024" viewBox="0 0 789 1024" fill="none" xmlns="http://www.w3.org/2000/svg">
<rect width="789" height="1024" fill="#D5D5D5"/>
<path d="M73 279V747H630V279H73ZM95.28 301.286H607.72V724.714H95.28V301.286ZM117.56 323.571V577.42C117.255 578.9 117.255 580.466 117.56 581.946V702.429H585.44V648.455C585.745 646.975 585.745 645.408 585.44 643.929V323.571H117.56ZM139.84 345.857H563.16V619.554L459.767 516.134C457.286 513.696 453.805 512.521 450.368 513C447.887 513.261 445.537 514.393 443.753 516.134L396.408 563.491L281.875 438.482C279.308 435.696 275.522 434.347 271.779 435C269.56 435.305 267.515 436.306 265.861 437.786L139.84 554.089V345.857ZM462.9 401.571C444.449 401.571 429.48 416.545 429.48 435C429.48 453.455 444.449 468.429 462.9 468.429C481.351 468.429 496.32 453.455 496.32 435C496.32 416.545 481.351 401.571 462.9 401.571ZM272.824 462.161L380.394 579.509L354.633 605.277C350.195 609.716 350.195 616.855 354.633 621.295C359.072 625.734 366.208 625.734 370.647 621.295L402.326 589.259C403.893 588.301 405.198 586.995 406.156 585.429L451.76 540.161L563.16 651.589V680.143H139.84V585.08L272.824 462.161Z" fill="white" fill-opacity="0.65"/>
<rect x="587.129" y="219.388" width="23.7021" height="751.564" transform="rotate(40.6144 587.129 219.388)" fill="#F28F8F" fill-opacity="0.87"/>
<rect x="549.659" y="831.874" width="23.7021" height="751.564" transform="rotate(150 549.659 831.874)" fill="#F28F8F" fill-opacity="0.87"/>
</svg>
