<svg width="789" height="1024" viewBox="0 0 789 1024" fill="none" xmlns="http://www.w3.org/2000/svg">
<g clip-path="url(#clip0_1_5)">
<rect width="789" height="1024" fill="#D5D5D5"/>
<path d="M95 170.392V905.392H970V170.392H95ZM130 205.392H935V870.392H130V205.392ZM165 240.392V639.064C164.521 641.388 164.521 643.849 165 646.174V835.392H900V750.627C900.479 748.303 900.479 745.842 900 743.517V240.392H165ZM200 275.392H865V705.236L702.578 542.814C698.682 538.986 693.213 537.14 687.812 537.892C683.916 538.303 680.225 540.08 677.422 542.814L603.047 617.189L423.125 420.861C419.092 416.486 413.145 414.367 407.266 415.392C403.779 415.871 400.566 417.443 397.969 419.767L200 602.424V275.392ZM707.5 362.892C678.516 362.892 655 386.408 655 415.392C655 444.377 678.516 467.892 707.5 467.892C736.484 467.892 760 444.377 760 415.392C760 386.408 736.484 362.892 707.5 362.892ZM408.906 458.049L577.891 642.346L537.422 682.814C530.449 689.787 530.449 700.998 537.422 707.971C544.395 714.943 555.605 714.943 562.578 707.971L612.344 657.658C614.805 656.154 616.855 654.103 618.359 651.642L690 580.549L865 755.549V800.392H200V651.096L408.906 458.049Z" fill="white" fill-opacity="0.65"/>
<rect x="902.653" y="77.305" width="37.234" height="1180.64" transform="rotate(40.6144 902.653 77.305)" fill="#F28F8F" fill-opacity="0.87"/>
<rect x="843.791" y="1039.47" width="37.234" height="1180.64" transform="rotate(150 843.791 1039.47)" fill="#F28F8F" fill-opacity="0.87"/>
</g>
<defs>
<clipPath id="clip0_1_5">
<rect width="789" height="1024" fill="white"/>
</clipPath>
</defs>
</svg>
