<svg width="26" height="26" viewBox="0 0 26 26" fill="none" xmlns="http://www.w3.org/2000/svg">
<path d="M21 14H5C3.67392 14 2.40215 14.5268 1.46447 15.4645C0.526784 16.4021 0 17.6739 0 19V26H2V19C2 18.2044 2.31607 17.4413 2.87868 16.8787C3.44129 16.3161 4.20435 16 5 16H21C21.7956 16 22.5587 16.3161 23.1213 16.8787C23.6839 17.4413 24 18.2044 24 19V26H26V19C26 17.6739 25.4732 16.4021 24.5355 15.4645C23.5979 14.5268 22.3261 14 21 14V14Z" fill="black"/>
<path d="M13 12C14.1867 12 15.3467 11.6481 16.3334 10.9888C17.3201 10.3295 18.0892 9.39246 18.5433 8.2961C18.9974 7.19975 19.1162 5.99335 18.8847 4.82946C18.6532 3.66558 18.0818 2.59648 17.2426 1.75736C16.4035 0.918247 15.3344 0.346802 14.1705 0.115291C13.0067 -0.11622 11.8003 0.00259972 10.7039 0.456726C9.60754 0.910851 8.67047 1.67989 8.01118 2.66658C7.35189 3.65328 7 4.81331 7 6C7 7.5913 7.63214 9.11743 8.75736 10.2426C9.88258 11.3679 11.4087 12 13 12ZM13 2C13.7911 2 14.5645 2.2346 15.2223 2.67412C15.8801 3.11365 16.3928 3.73836 16.6955 4.46927C16.9983 5.20017 17.0775 6.00444 16.9231 6.78036C16.7688 7.55629 16.3878 8.26902 15.8284 8.82843C15.269 9.38784 14.5563 9.7688 13.7804 9.92314C13.0044 10.0775 12.2002 9.99827 11.4693 9.69552C10.7384 9.39277 10.1136 8.88008 9.67412 8.22228C9.2346 7.56449 9 6.79113 9 6C9 4.93914 9.42143 3.92172 10.1716 3.17158C10.9217 2.42143 11.9391 2 13 2V2Z" fill="black"/>
</svg>
